<?xml version="1.0" encoding="utf-8"?>
<!-- Generator: Adobe Illustrator 15.1.0, SVG Export Plug-In . SVG Version: 6.00 Build 0)  -->
<!DOCTYPE svg PUBLIC "-//W3C//DTD SVG 1.1//EN" "http://www.w3.org/Graphics/SVG/1.1/DTD/svg11.dtd">
<svg version="1.1" id="Layer_1" xmlns="http://www.w3.org/2000/svg" xmlns:xlink="http://www.w3.org/1999/xlink" x="0px" y="0px"
	 width="640px" height="480px" viewBox="0 0 640 480" enable-background="new 0 0 640 480" xml:space="preserve">
<title>maron  Flame Logo</title>
<g>
	<title>Layer 1</title>
	<g id="svg_258">
		<path id="svg_24" fill="#993333" stroke="#FFFFFF" stroke-width="2" stroke-linecap="square" stroke-linejoin="round" d="
			M271,56.5c32.566,40.133-16.167,101-76,203.5s74,154.167,84.667,155.167c10.667,1-52-39.167-32.167-100.167
			s67.533-95.533,79.5-142.1C338.967,126.333,238.434,16.367,271,56.5z"/>
		<path id="svg_25" fill="#FFFFFF" d="M345.407,192.309c3.246,6.601,4.765,18.668,1.158,32.911
			c-3.604,14.243-8.658,24.843-19.778,42.2c-5.561,8.68-17.703,25.353-24.589,34.983c-6.886,9.631-8.514,12.22-19.044,30.729
			c-21.06,37.021,21.379,73.551,13.358,60.99c-8.021-12.561,3.195-37.022,14.441-53.428c11.245-16.405,18.854-24.033,29.826-39.883
			c10.972-15.849,21.402-40.739,21.485-54.518c0.084-13.779-0.081-18.167-5.521-32.983
			C351.302,198.495,338.912,179.106,345.407,192.309z"/>
		<path id="svg_26" fill="#993333" d="M318.213,424.33c-4.66,8.613-5.99-18.134,2.305-41.287
			c8.296-23.153,31.98-43.519,43.239-65.421c11.259-21.903,20.868-55.025,11.842-72.646c-9.026-17.621,1.594,2.027,9.203,14.637
			c7.608,12.607,11.891,21.873,11.7,42.49s-5.354,44.791-39.453,76.402C322.95,410.116,322.874,415.718,318.213,424.33z"/>
	</g>
</g>
</svg>
